G04 #@! TF.FileFunction,Copper,L2,Bot,Signal*
%FSLAX46Y46*%
G04 Gerber Fmt 4.6, Leading zero omitted, Abs format (unit mm)*
G04 Created by KiCad (PCBNEW 4.0.2-stable) date Thursday, May 10, 2018 'AMt' 09:26:35 AM*
%MOMM*%
G01*
G04 APERTURE LIST*
%ADD10C,0.025400*%
%ADD11R,1.450000X1.450000*%
%ADD12O,1.450000X1.450000*%
%ADD13R,1.350000X1.350000*%
%ADD14O,1.350000X1.350000*%
%ADD15C,0.600000*%
%ADD16C,0.203200*%
G04 APERTURE END LIST*
D10*
D11*
X109004100Y-89103200D03*
D12*
X106464100Y-89103200D03*
X103924100Y-89103200D03*
D13*
X103378000Y-98425000D03*
D14*
X105378000Y-98425000D03*
X107378000Y-98425000D03*
X109378000Y-98425000D03*
D15*
X102735278Y-90784569D03*
X104837404Y-90804853D03*
X107315000Y-94234000D03*
D16*
X109378000Y-98425000D02*
X109423200Y-98425000D01*
X104837404Y-90804853D02*
X102755562Y-90804853D01*
X102755562Y-90804853D02*
X102735278Y-90784569D01*
X105261668Y-90804853D02*
X104837404Y-90804853D01*
X105994053Y-90804853D02*
X105261668Y-90804853D01*
X106197400Y-91008200D02*
X105994053Y-90804853D01*
X106197400Y-94234000D02*
X106197400Y-96024700D01*
X106197400Y-96024700D02*
X105378000Y-96844100D01*
X105378000Y-96844100D02*
X105378000Y-98425000D01*
X106197400Y-94234000D02*
X107315000Y-94234000D01*
X106197400Y-91008200D02*
X106197400Y-94234000D01*
X106197400Y-89052400D02*
X106197400Y-91008200D01*
G36*
X110872200Y-101220200D02*
X101979800Y-101220200D01*
X101979800Y-97750000D01*
X102396726Y-97750000D01*
X102396726Y-99100000D01*
X102400597Y-99148538D01*
X102426091Y-99230864D01*
X102473512Y-99302828D01*
X102539104Y-99358732D01*
X102617674Y-99394148D01*
X102703000Y-99406274D01*
X104053000Y-99406274D01*
X104101538Y-99402403D01*
X104183864Y-99376909D01*
X104255828Y-99329488D01*
X104311732Y-99263896D01*
X104347148Y-99185326D01*
X104359274Y-99100000D01*
X104359274Y-98677798D01*
X104431368Y-98677798D01*
X104498876Y-98857619D01*
X104600168Y-99020815D01*
X104731352Y-99161114D01*
X104887386Y-99273125D01*
X105062274Y-99352543D01*
X105125203Y-99371626D01*
X105276400Y-99322870D01*
X105276400Y-98526600D01*
X105479600Y-98526600D01*
X105479600Y-99322870D01*
X105630797Y-99371626D01*
X105693726Y-99352543D01*
X105868614Y-99273125D01*
X106024648Y-99161114D01*
X106155832Y-99020815D01*
X106257124Y-98857619D01*
X106324632Y-98677798D01*
X106276324Y-98526600D01*
X105479600Y-98526600D01*
X105276400Y-98526600D01*
X104479676Y-98526600D01*
X104431368Y-98677798D01*
X104359274Y-98677798D01*
X104359274Y-98420259D01*
X106398200Y-98420259D01*
X106398200Y-98429741D01*
X106416860Y-98620052D01*
X106472130Y-98803114D01*
X106561904Y-98971954D01*
X106682763Y-99120142D01*
X106830103Y-99242032D01*
X106998312Y-99332983D01*
X107180984Y-99389529D01*
X107371160Y-99409517D01*
X107561596Y-99392186D01*
X107745040Y-99338196D01*
X107914502Y-99249603D01*
X108063530Y-99129781D01*
X108186446Y-98983296D01*
X108278569Y-98815725D01*
X108336389Y-98633453D01*
X108357704Y-98443421D01*
X108357800Y-98429741D01*
X108357800Y-98420259D01*
X108398200Y-98420259D01*
X108398200Y-98429741D01*
X108416860Y-98620052D01*
X108472130Y-98803114D01*
X108561904Y-98971954D01*
X108682763Y-99120142D01*
X108830103Y-99242032D01*
X108998312Y-99332983D01*
X109180984Y-99389529D01*
X109371160Y-99409517D01*
X109561596Y-99392186D01*
X109745040Y-99338196D01*
X109914502Y-99249603D01*
X110063530Y-99129781D01*
X110186446Y-98983296D01*
X110278569Y-98815725D01*
X110336389Y-98633453D01*
X110357704Y-98443421D01*
X110357800Y-98429741D01*
X110357800Y-98420259D01*
X110339140Y-98229948D01*
X110283870Y-98046886D01*
X110194096Y-97878046D01*
X110073237Y-97729858D01*
X109925897Y-97607968D01*
X109757688Y-97517017D01*
X109575016Y-97460471D01*
X109384840Y-97440483D01*
X109194404Y-97457814D01*
X109010960Y-97511804D01*
X108841498Y-97600397D01*
X108692470Y-97720219D01*
X108569554Y-97866704D01*
X108477431Y-98034275D01*
X108419611Y-98216547D01*
X108398296Y-98406579D01*
X108398200Y-98420259D01*
X108357800Y-98420259D01*
X108339140Y-98229948D01*
X108283870Y-98046886D01*
X108194096Y-97878046D01*
X108073237Y-97729858D01*
X107925897Y-97607968D01*
X107757688Y-97517017D01*
X107575016Y-97460471D01*
X107384840Y-97440483D01*
X107194404Y-97457814D01*
X107010960Y-97511804D01*
X106841498Y-97600397D01*
X106692470Y-97720219D01*
X106569554Y-97866704D01*
X106477431Y-98034275D01*
X106419611Y-98216547D01*
X106398296Y-98406579D01*
X106398200Y-98420259D01*
X104359274Y-98420259D01*
X104359274Y-98172202D01*
X104431368Y-98172202D01*
X104479676Y-98323400D01*
X105276400Y-98323400D01*
X105276400Y-97527130D01*
X105479600Y-97527130D01*
X105479600Y-98323400D01*
X106276324Y-98323400D01*
X106324632Y-98172202D01*
X106257124Y-97992381D01*
X106155832Y-97829185D01*
X106024648Y-97688886D01*
X105868614Y-97576875D01*
X105693726Y-97497457D01*
X105630797Y-97478374D01*
X105479600Y-97527130D01*
X105276400Y-97527130D01*
X105125203Y-97478374D01*
X105062274Y-97497457D01*
X104887386Y-97576875D01*
X104731352Y-97688886D01*
X104600168Y-97829185D01*
X104498876Y-97992381D01*
X104431368Y-98172202D01*
X104359274Y-98172202D01*
X104359274Y-97750000D01*
X104355403Y-97701462D01*
X104329909Y-97619136D01*
X104282488Y-97547172D01*
X104216896Y-97491268D01*
X104138326Y-97455852D01*
X104053000Y-97443726D01*
X102703000Y-97443726D01*
X102654462Y-97447597D01*
X102572136Y-97473091D01*
X102500172Y-97520512D01*
X102444268Y-97586104D01*
X102408852Y-97664674D01*
X102396726Y-97750000D01*
X101979800Y-97750000D01*
X101979800Y-89098217D01*
X102894300Y-89098217D01*
X102894300Y-89108183D01*
X102913912Y-89308206D01*
X102972002Y-89500609D01*
X103066358Y-89678066D01*
X103193384Y-89833815D01*
X103348243Y-89961926D01*
X103525036Y-90057518D01*
X103717030Y-90116950D01*
X103916911Y-90137958D01*
X104117065Y-90119742D01*
X104309870Y-90062997D01*
X104487981Y-89969883D01*
X104644613Y-89843947D01*
X104773802Y-89689986D01*
X104870626Y-89513864D01*
X104918209Y-89363860D01*
X105467829Y-89363860D01*
X105537824Y-89553214D01*
X105643416Y-89725275D01*
X105780546Y-89873430D01*
X105943945Y-89991985D01*
X106127333Y-90076384D01*
X106203441Y-90099466D01*
X106362500Y-90051372D01*
X106362500Y-89204800D01*
X106565700Y-89204800D01*
X106565700Y-90051372D01*
X106724759Y-90099466D01*
X106800867Y-90076384D01*
X106984255Y-89991985D01*
X107147654Y-89873430D01*
X107284784Y-89725275D01*
X107390376Y-89553214D01*
X107460371Y-89363860D01*
X107412681Y-89204800D01*
X106565700Y-89204800D01*
X106362500Y-89204800D01*
X105515519Y-89204800D01*
X105467829Y-89363860D01*
X104918209Y-89363860D01*
X104931396Y-89322290D01*
X104953800Y-89122561D01*
X104953900Y-89108183D01*
X104953900Y-89098217D01*
X104934288Y-88898194D01*
X104917486Y-88842540D01*
X105467829Y-88842540D01*
X105515519Y-89001600D01*
X106362500Y-89001600D01*
X106362500Y-88155028D01*
X106565700Y-88155028D01*
X106565700Y-89001600D01*
X107412681Y-89001600D01*
X107460371Y-88842540D01*
X107390376Y-88653186D01*
X107284784Y-88481125D01*
X107189519Y-88378200D01*
X107972826Y-88378200D01*
X107972826Y-89828200D01*
X107976697Y-89876738D01*
X108002191Y-89959064D01*
X108049612Y-90031028D01*
X108115204Y-90086932D01*
X108193774Y-90122348D01*
X108279100Y-90134474D01*
X109729100Y-90134474D01*
X109777638Y-90130603D01*
X109859964Y-90105109D01*
X109931928Y-90057688D01*
X109987832Y-89992096D01*
X110023248Y-89913526D01*
X110035374Y-89828200D01*
X110035374Y-88378200D01*
X110031503Y-88329662D01*
X110006009Y-88247336D01*
X109958588Y-88175372D01*
X109892996Y-88119468D01*
X109814426Y-88084052D01*
X109729100Y-88071926D01*
X108279100Y-88071926D01*
X108230562Y-88075797D01*
X108148236Y-88101291D01*
X108076272Y-88148712D01*
X108020368Y-88214304D01*
X107984952Y-88292874D01*
X107972826Y-88378200D01*
X107189519Y-88378200D01*
X107147654Y-88332970D01*
X106984255Y-88214415D01*
X106800867Y-88130016D01*
X106724759Y-88106934D01*
X106565700Y-88155028D01*
X106362500Y-88155028D01*
X106203441Y-88106934D01*
X106127333Y-88130016D01*
X105943945Y-88214415D01*
X105780546Y-88332970D01*
X105643416Y-88481125D01*
X105537824Y-88653186D01*
X105467829Y-88842540D01*
X104917486Y-88842540D01*
X104876198Y-88705791D01*
X104781842Y-88528334D01*
X104654816Y-88372585D01*
X104499957Y-88244474D01*
X104323164Y-88148882D01*
X104131170Y-88089450D01*
X103931289Y-88068442D01*
X103731135Y-88086658D01*
X103538330Y-88143403D01*
X103360219Y-88236517D01*
X103203587Y-88362453D01*
X103074398Y-88516414D01*
X102977574Y-88692536D01*
X102916804Y-88884110D01*
X102894400Y-89083839D01*
X102894300Y-89098217D01*
X101979800Y-89098217D01*
X101979800Y-85977800D01*
X110872200Y-85977800D01*
X110872200Y-101220200D01*
X110872200Y-101220200D01*
G37*
X110872200Y-101220200D02*
X101979800Y-101220200D01*
X101979800Y-97750000D01*
X102396726Y-97750000D01*
X102396726Y-99100000D01*
X102400597Y-99148538D01*
X102426091Y-99230864D01*
X102473512Y-99302828D01*
X102539104Y-99358732D01*
X102617674Y-99394148D01*
X102703000Y-99406274D01*
X104053000Y-99406274D01*
X104101538Y-99402403D01*
X104183864Y-99376909D01*
X104255828Y-99329488D01*
X104311732Y-99263896D01*
X104347148Y-99185326D01*
X104359274Y-99100000D01*
X104359274Y-98677798D01*
X104431368Y-98677798D01*
X104498876Y-98857619D01*
X104600168Y-99020815D01*
X104731352Y-99161114D01*
X104887386Y-99273125D01*
X105062274Y-99352543D01*
X105125203Y-99371626D01*
X105276400Y-99322870D01*
X105276400Y-98526600D01*
X105479600Y-98526600D01*
X105479600Y-99322870D01*
X105630797Y-99371626D01*
X105693726Y-99352543D01*
X105868614Y-99273125D01*
X106024648Y-99161114D01*
X106155832Y-99020815D01*
X106257124Y-98857619D01*
X106324632Y-98677798D01*
X106276324Y-98526600D01*
X105479600Y-98526600D01*
X105276400Y-98526600D01*
X104479676Y-98526600D01*
X104431368Y-98677798D01*
X104359274Y-98677798D01*
X104359274Y-98420259D01*
X106398200Y-98420259D01*
X106398200Y-98429741D01*
X106416860Y-98620052D01*
X106472130Y-98803114D01*
X106561904Y-98971954D01*
X106682763Y-99120142D01*
X106830103Y-99242032D01*
X106998312Y-99332983D01*
X107180984Y-99389529D01*
X107371160Y-99409517D01*
X107561596Y-99392186D01*
X107745040Y-99338196D01*
X107914502Y-99249603D01*
X108063530Y-99129781D01*
X108186446Y-98983296D01*
X108278569Y-98815725D01*
X108336389Y-98633453D01*
X108357704Y-98443421D01*
X108357800Y-98429741D01*
X108357800Y-98420259D01*
X108398200Y-98420259D01*
X108398200Y-98429741D01*
X108416860Y-98620052D01*
X108472130Y-98803114D01*
X108561904Y-98971954D01*
X108682763Y-99120142D01*
X108830103Y-99242032D01*
X108998312Y-99332983D01*
X109180984Y-99389529D01*
X109371160Y-99409517D01*
X109561596Y-99392186D01*
X109745040Y-99338196D01*
X109914502Y-99249603D01*
X110063530Y-99129781D01*
X110186446Y-98983296D01*
X110278569Y-98815725D01*
X110336389Y-98633453D01*
X110357704Y-98443421D01*
X110357800Y-98429741D01*
X110357800Y-98420259D01*
X110339140Y-98229948D01*
X110283870Y-98046886D01*
X110194096Y-97878046D01*
X110073237Y-97729858D01*
X109925897Y-97607968D01*
X109757688Y-97517017D01*
X109575016Y-97460471D01*
X109384840Y-97440483D01*
X109194404Y-97457814D01*
X109010960Y-97511804D01*
X108841498Y-97600397D01*
X108692470Y-97720219D01*
X108569554Y-97866704D01*
X108477431Y-98034275D01*
X108419611Y-98216547D01*
X108398296Y-98406579D01*
X108398200Y-98420259D01*
X108357800Y-98420259D01*
X108339140Y-98229948D01*
X108283870Y-98046886D01*
X108194096Y-97878046D01*
X108073237Y-97729858D01*
X107925897Y-97607968D01*
X107757688Y-97517017D01*
X107575016Y-97460471D01*
X107384840Y-97440483D01*
X107194404Y-97457814D01*
X107010960Y-97511804D01*
X106841498Y-97600397D01*
X106692470Y-97720219D01*
X106569554Y-97866704D01*
X106477431Y-98034275D01*
X106419611Y-98216547D01*
X106398296Y-98406579D01*
X106398200Y-98420259D01*
X104359274Y-98420259D01*
X104359274Y-98172202D01*
X104431368Y-98172202D01*
X104479676Y-98323400D01*
X105276400Y-98323400D01*
X105276400Y-97527130D01*
X105479600Y-97527130D01*
X105479600Y-98323400D01*
X106276324Y-98323400D01*
X106324632Y-98172202D01*
X106257124Y-97992381D01*
X106155832Y-97829185D01*
X106024648Y-97688886D01*
X105868614Y-97576875D01*
X105693726Y-97497457D01*
X105630797Y-97478374D01*
X105479600Y-97527130D01*
X105276400Y-97527130D01*
X105125203Y-97478374D01*
X105062274Y-97497457D01*
X104887386Y-97576875D01*
X104731352Y-97688886D01*
X104600168Y-97829185D01*
X104498876Y-97992381D01*
X104431368Y-98172202D01*
X104359274Y-98172202D01*
X104359274Y-97750000D01*
X104355403Y-97701462D01*
X104329909Y-97619136D01*
X104282488Y-97547172D01*
X104216896Y-97491268D01*
X104138326Y-97455852D01*
X104053000Y-97443726D01*
X102703000Y-97443726D01*
X102654462Y-97447597D01*
X102572136Y-97473091D01*
X102500172Y-97520512D01*
X102444268Y-97586104D01*
X102408852Y-97664674D01*
X102396726Y-97750000D01*
X101979800Y-97750000D01*
X101979800Y-89098217D01*
X102894300Y-89098217D01*
X102894300Y-89108183D01*
X102913912Y-89308206D01*
X102972002Y-89500609D01*
X103066358Y-89678066D01*
X103193384Y-89833815D01*
X103348243Y-89961926D01*
X103525036Y-90057518D01*
X103717030Y-90116950D01*
X103916911Y-90137958D01*
X104117065Y-90119742D01*
X104309870Y-90062997D01*
X104487981Y-89969883D01*
X104644613Y-89843947D01*
X104773802Y-89689986D01*
X104870626Y-89513864D01*
X104918209Y-89363860D01*
X105467829Y-89363860D01*
X105537824Y-89553214D01*
X105643416Y-89725275D01*
X105780546Y-89873430D01*
X105943945Y-89991985D01*
X106127333Y-90076384D01*
X106203441Y-90099466D01*
X106362500Y-90051372D01*
X106362500Y-89204800D01*
X106565700Y-89204800D01*
X106565700Y-90051372D01*
X106724759Y-90099466D01*
X106800867Y-90076384D01*
X106984255Y-89991985D01*
X107147654Y-89873430D01*
X107284784Y-89725275D01*
X107390376Y-89553214D01*
X107460371Y-89363860D01*
X107412681Y-89204800D01*
X106565700Y-89204800D01*
X106362500Y-89204800D01*
X105515519Y-89204800D01*
X105467829Y-89363860D01*
X104918209Y-89363860D01*
X104931396Y-89322290D01*
X104953800Y-89122561D01*
X104953900Y-89108183D01*
X104953900Y-89098217D01*
X104934288Y-88898194D01*
X104917486Y-88842540D01*
X105467829Y-88842540D01*
X105515519Y-89001600D01*
X106362500Y-89001600D01*
X106362500Y-88155028D01*
X106565700Y-88155028D01*
X106565700Y-89001600D01*
X107412681Y-89001600D01*
X107460371Y-88842540D01*
X107390376Y-88653186D01*
X107284784Y-88481125D01*
X107189519Y-88378200D01*
X107972826Y-88378200D01*
X107972826Y-89828200D01*
X107976697Y-89876738D01*
X108002191Y-89959064D01*
X108049612Y-90031028D01*
X108115204Y-90086932D01*
X108193774Y-90122348D01*
X108279100Y-90134474D01*
X109729100Y-90134474D01*
X109777638Y-90130603D01*
X109859964Y-90105109D01*
X109931928Y-90057688D01*
X109987832Y-89992096D01*
X110023248Y-89913526D01*
X110035374Y-89828200D01*
X110035374Y-88378200D01*
X110031503Y-88329662D01*
X110006009Y-88247336D01*
X109958588Y-88175372D01*
X109892996Y-88119468D01*
X109814426Y-88084052D01*
X109729100Y-88071926D01*
X108279100Y-88071926D01*
X108230562Y-88075797D01*
X108148236Y-88101291D01*
X108076272Y-88148712D01*
X108020368Y-88214304D01*
X107984952Y-88292874D01*
X107972826Y-88378200D01*
X107189519Y-88378200D01*
X107147654Y-88332970D01*
X106984255Y-88214415D01*
X106800867Y-88130016D01*
X106724759Y-88106934D01*
X106565700Y-88155028D01*
X106362500Y-88155028D01*
X106203441Y-88106934D01*
X106127333Y-88130016D01*
X105943945Y-88214415D01*
X105780546Y-88332970D01*
X105643416Y-88481125D01*
X105537824Y-88653186D01*
X105467829Y-88842540D01*
X104917486Y-88842540D01*
X104876198Y-88705791D01*
X104781842Y-88528334D01*
X104654816Y-88372585D01*
X104499957Y-88244474D01*
X104323164Y-88148882D01*
X104131170Y-88089450D01*
X103931289Y-88068442D01*
X103731135Y-88086658D01*
X103538330Y-88143403D01*
X103360219Y-88236517D01*
X103203587Y-88362453D01*
X103074398Y-88516414D01*
X102977574Y-88692536D01*
X102916804Y-88884110D01*
X102894400Y-89083839D01*
X102894300Y-89098217D01*
X101979800Y-89098217D01*
X101979800Y-85977800D01*
X110872200Y-85977800D01*
X110872200Y-101220200D01*
M02*
