G04 #@! TF.FileFunction,Soldermask,Top*
%FSLAX46Y46*%
G04 Gerber Fmt 4.6, Leading zero omitted, Abs format (unit mm)*
G04 Created by KiCad (PCBNEW 4.0.2-stable) date Thursday, May 10, 2018 'AMt' 09:26:35 AM*
%MOMM*%
G01*
G04 APERTURE LIST*
%ADD10C,0.025400*%
G04 APERTURE END LIST*
D10*
G36*
X105427768Y-97674863D02*
X105529034Y-97685505D01*
X105529040Y-97685507D01*
X105529050Y-97685508D01*
X105669102Y-97728861D01*
X105798066Y-97798592D01*
X105911030Y-97892044D01*
X106003690Y-98005657D01*
X106072519Y-98135105D01*
X106114894Y-98275456D01*
X106129200Y-98421365D01*
X106129200Y-98428635D01*
X106129127Y-98439123D01*
X106112784Y-98584818D01*
X106068454Y-98724564D01*
X105997825Y-98853038D01*
X105903587Y-98965347D01*
X105789329Y-99057212D01*
X105659404Y-99125136D01*
X105518761Y-99166529D01*
X105518753Y-99166530D01*
X105518752Y-99166530D01*
X105501656Y-99168086D01*
X105372756Y-99179817D01*
X105328232Y-99175137D01*
X105226966Y-99164495D01*
X105226960Y-99164493D01*
X105226950Y-99164492D01*
X105086898Y-99121139D01*
X104957934Y-99051408D01*
X104844970Y-98957956D01*
X104752310Y-98844343D01*
X104683481Y-98714895D01*
X104641106Y-98574544D01*
X104626800Y-98428635D01*
X104626800Y-98421365D01*
X104626873Y-98410877D01*
X104643216Y-98265182D01*
X104687546Y-98125436D01*
X104758175Y-97996962D01*
X104852413Y-97884653D01*
X104966671Y-97792788D01*
X105096596Y-97724864D01*
X105237239Y-97683471D01*
X105237247Y-97683470D01*
X105237248Y-97683470D01*
X105254344Y-97681914D01*
X105383244Y-97670183D01*
X105427768Y-97674863D01*
X105427768Y-97674863D01*
G37*
G36*
X107427768Y-97674863D02*
X107529034Y-97685505D01*
X107529040Y-97685507D01*
X107529050Y-97685508D01*
X107669102Y-97728861D01*
X107798066Y-97798592D01*
X107911030Y-97892044D01*
X108003690Y-98005657D01*
X108072519Y-98135105D01*
X108114894Y-98275456D01*
X108129200Y-98421365D01*
X108129200Y-98428635D01*
X108129127Y-98439123D01*
X108112784Y-98584818D01*
X108068454Y-98724564D01*
X107997825Y-98853038D01*
X107903587Y-98965347D01*
X107789329Y-99057212D01*
X107659404Y-99125136D01*
X107518761Y-99166529D01*
X107518753Y-99166530D01*
X107518752Y-99166530D01*
X107501656Y-99168086D01*
X107372756Y-99179817D01*
X107328232Y-99175137D01*
X107226966Y-99164495D01*
X107226960Y-99164493D01*
X107226950Y-99164492D01*
X107086898Y-99121139D01*
X106957934Y-99051408D01*
X106844970Y-98957956D01*
X106752310Y-98844343D01*
X106683481Y-98714895D01*
X106641106Y-98574544D01*
X106626800Y-98428635D01*
X106626800Y-98421365D01*
X106626873Y-98410877D01*
X106643216Y-98265182D01*
X106687546Y-98125436D01*
X106758175Y-97996962D01*
X106852413Y-97884653D01*
X106966671Y-97792788D01*
X107096596Y-97724864D01*
X107237239Y-97683471D01*
X107237247Y-97683470D01*
X107237248Y-97683470D01*
X107254344Y-97681914D01*
X107383244Y-97670183D01*
X107427768Y-97674863D01*
X107427768Y-97674863D01*
G37*
G36*
X109427768Y-97674863D02*
X109529034Y-97685505D01*
X109529040Y-97685507D01*
X109529050Y-97685508D01*
X109669102Y-97728861D01*
X109798066Y-97798592D01*
X109911030Y-97892044D01*
X110003690Y-98005657D01*
X110072519Y-98135105D01*
X110114894Y-98275456D01*
X110129200Y-98421365D01*
X110129200Y-98428635D01*
X110129127Y-98439123D01*
X110112784Y-98584818D01*
X110068454Y-98724564D01*
X109997825Y-98853038D01*
X109903587Y-98965347D01*
X109789329Y-99057212D01*
X109659404Y-99125136D01*
X109518761Y-99166529D01*
X109518753Y-99166530D01*
X109518752Y-99166530D01*
X109501656Y-99168086D01*
X109372756Y-99179817D01*
X109328232Y-99175137D01*
X109226966Y-99164495D01*
X109226960Y-99164493D01*
X109226950Y-99164492D01*
X109086898Y-99121139D01*
X108957934Y-99051408D01*
X108844970Y-98957956D01*
X108752310Y-98844343D01*
X108683481Y-98714895D01*
X108641106Y-98574544D01*
X108626800Y-98428635D01*
X108626800Y-98421365D01*
X108626873Y-98410877D01*
X108643216Y-98265182D01*
X108687546Y-98125436D01*
X108758175Y-97996962D01*
X108852413Y-97884653D01*
X108966671Y-97792788D01*
X109096596Y-97724864D01*
X109237239Y-97683471D01*
X109237247Y-97683470D01*
X109237248Y-97683470D01*
X109254344Y-97681914D01*
X109383244Y-97670183D01*
X109427768Y-97674863D01*
X109427768Y-97674863D01*
G37*
G36*
X104129200Y-99176200D02*
X102626800Y-99176200D01*
X102626800Y-97673800D01*
X104129200Y-97673800D01*
X104129200Y-99176200D01*
X104129200Y-99176200D01*
G37*
G36*
X105897715Y-95504677D02*
X106092893Y-95544741D01*
X106092896Y-95544742D01*
X106092895Y-95544742D01*
X106276572Y-95621953D01*
X106441756Y-95733370D01*
X106512450Y-95804560D01*
X106582153Y-95874751D01*
X106582155Y-95874754D01*
X106686125Y-96031241D01*
X106692415Y-96040709D01*
X106768343Y-96224923D01*
X106807044Y-96420376D01*
X106803866Y-96647955D01*
X106759723Y-96842251D01*
X106709790Y-96954400D01*
X106678682Y-97024272D01*
X106678681Y-97024273D01*
X106563828Y-97187088D01*
X106419539Y-97324493D01*
X106251308Y-97431255D01*
X106065545Y-97503308D01*
X106065542Y-97503308D01*
X106065541Y-97503309D01*
X105942777Y-97524955D01*
X105869324Y-97537907D01*
X105869323Y-97537907D01*
X105670122Y-97533735D01*
X105596572Y-97517564D01*
X105475520Y-97490949D01*
X105292936Y-97411180D01*
X105129324Y-97297467D01*
X104990915Y-97154140D01*
X104990914Y-97154139D01*
X104882980Y-96986658D01*
X104809632Y-96801402D01*
X104773664Y-96605431D01*
X104775123Y-96500977D01*
X104774669Y-96497433D01*
X104773246Y-96494154D01*
X104770967Y-96491402D01*
X104768010Y-96489395D01*
X104764612Y-96488290D01*
X104762424Y-96488100D01*
X103272400Y-96488100D01*
X103272400Y-95885700D01*
X104874800Y-95885700D01*
X104874800Y-96018637D01*
X104875303Y-96022175D01*
X104876771Y-96025433D01*
X104879090Y-96028153D01*
X104882074Y-96030119D01*
X104885487Y-96031177D01*
X104889060Y-96031241D01*
X104892510Y-96030307D01*
X104895563Y-96028449D01*
X104897979Y-96025812D01*
X104898239Y-96025433D01*
X104925558Y-95985534D01*
X105008931Y-95863769D01*
X105151291Y-95724360D01*
X105318014Y-95615261D01*
X105502753Y-95540621D01*
X105698472Y-95503286D01*
X105897715Y-95504677D01*
X105897715Y-95504677D01*
G37*
G36*
X109274800Y-96488100D02*
X107672400Y-96488100D01*
X107672400Y-95885700D01*
X109274800Y-95885700D01*
X109274800Y-96488100D01*
X109274800Y-96488100D01*
G37*
G36*
X109274800Y-95838100D02*
X107672400Y-95838100D01*
X107672400Y-95235700D01*
X109274800Y-95235700D01*
X109274800Y-95838100D01*
X109274800Y-95838100D01*
G37*
G36*
X104874800Y-95838100D02*
X103272400Y-95838100D01*
X103272400Y-95235700D01*
X104874800Y-95235700D01*
X104874800Y-95838100D01*
X104874800Y-95838100D01*
G37*
G36*
X104874800Y-95188100D02*
X103272400Y-95188100D01*
X103272400Y-94585700D01*
X104874800Y-94585700D01*
X104874800Y-95188100D01*
X104874800Y-95188100D01*
G37*
G36*
X109274800Y-95188100D02*
X107672400Y-95188100D01*
X107672400Y-94585700D01*
X109274800Y-94585700D01*
X109274800Y-95188100D01*
X109274800Y-95188100D01*
G37*
G36*
X104874800Y-94538100D02*
X103272400Y-94538100D01*
X103272400Y-93935700D01*
X104874800Y-93935700D01*
X104874800Y-94538100D01*
X104874800Y-94538100D01*
G37*
G36*
X109274800Y-94538100D02*
X107672400Y-94538100D01*
X107672400Y-93935700D01*
X109274800Y-93935700D01*
X109274800Y-94538100D01*
X109274800Y-94538100D01*
G37*
G36*
X110384800Y-93856800D02*
X109782400Y-93856800D01*
X109782400Y-93104400D01*
X110384800Y-93104400D01*
X110384800Y-93856800D01*
X110384800Y-93856800D01*
G37*
G36*
X108466700Y-93001200D02*
X107814300Y-93001200D01*
X107814300Y-92248800D01*
X108466700Y-92248800D01*
X108466700Y-93001200D01*
X108466700Y-93001200D01*
G37*
G36*
X103005700Y-93001200D02*
X102353300Y-93001200D01*
X102353300Y-92248800D01*
X103005700Y-92248800D01*
X103005700Y-93001200D01*
X103005700Y-93001200D01*
G37*
G36*
X106307700Y-93001200D02*
X105655300Y-93001200D01*
X105655300Y-92248800D01*
X106307700Y-92248800D01*
X106307700Y-93001200D01*
X106307700Y-93001200D01*
G37*
G36*
X107399900Y-93001200D02*
X106747500Y-93001200D01*
X106747500Y-92248800D01*
X107399900Y-92248800D01*
X107399900Y-93001200D01*
X107399900Y-93001200D01*
G37*
G36*
X104148700Y-93001200D02*
X103496300Y-93001200D01*
X103496300Y-92248800D01*
X104148700Y-92248800D01*
X104148700Y-93001200D01*
X104148700Y-93001200D01*
G37*
G36*
X105164700Y-93001200D02*
X104512300Y-93001200D01*
X104512300Y-92248800D01*
X105164700Y-92248800D01*
X105164700Y-93001200D01*
X105164700Y-93001200D01*
G37*
G36*
X108466700Y-91901200D02*
X107814300Y-91901200D01*
X107814300Y-91148800D01*
X108466700Y-91148800D01*
X108466700Y-91901200D01*
X108466700Y-91901200D01*
G37*
G36*
X107399900Y-91901200D02*
X106747500Y-91901200D01*
X106747500Y-91148800D01*
X107399900Y-91148800D01*
X107399900Y-91901200D01*
X107399900Y-91901200D01*
G37*
G36*
X106307700Y-91901200D02*
X105655300Y-91901200D01*
X105655300Y-91148800D01*
X106307700Y-91148800D01*
X106307700Y-91901200D01*
X106307700Y-91901200D01*
G37*
G36*
X105164700Y-91901200D02*
X104512300Y-91901200D01*
X104512300Y-91148800D01*
X105164700Y-91148800D01*
X105164700Y-91901200D01*
X105164700Y-91901200D01*
G37*
G36*
X104148700Y-91901200D02*
X103496300Y-91901200D01*
X103496300Y-91148800D01*
X104148700Y-91148800D01*
X104148700Y-91901200D01*
X104148700Y-91901200D01*
G37*
G36*
X103005700Y-91901200D02*
X102353300Y-91901200D01*
X102353300Y-91148800D01*
X103005700Y-91148800D01*
X103005700Y-91901200D01*
X103005700Y-91901200D01*
G37*
G36*
X110384800Y-91756800D02*
X109782400Y-91756800D01*
X109782400Y-91004400D01*
X110384800Y-91004400D01*
X110384800Y-91756800D01*
X110384800Y-91756800D01*
G37*
G36*
X103992017Y-88304693D02*
X104085204Y-88314487D01*
X104234577Y-88360726D01*
X104372125Y-88435098D01*
X104492608Y-88534770D01*
X104591436Y-88655946D01*
X104664846Y-88794009D01*
X104710041Y-88943702D01*
X104725300Y-89099323D01*
X104725300Y-89107077D01*
X104725222Y-89118263D01*
X104707792Y-89273656D01*
X104660511Y-89422703D01*
X104585181Y-89559729D01*
X104484670Y-89679513D01*
X104362808Y-89777493D01*
X104224235Y-89849937D01*
X104074230Y-89894086D01*
X104074222Y-89894087D01*
X104074221Y-89894087D01*
X104012143Y-89899736D01*
X103918507Y-89908257D01*
X103918504Y-89908257D01*
X103856183Y-89901707D01*
X103762996Y-89891913D01*
X103613623Y-89845674D01*
X103476075Y-89771302D01*
X103355592Y-89671630D01*
X103256764Y-89550454D01*
X103183354Y-89412391D01*
X103138159Y-89262698D01*
X103122900Y-89107077D01*
X103122900Y-89099323D01*
X103122978Y-89088137D01*
X103140408Y-88932744D01*
X103187689Y-88783697D01*
X103263019Y-88646671D01*
X103363530Y-88526887D01*
X103485392Y-88428907D01*
X103623965Y-88356463D01*
X103773970Y-88312314D01*
X103773978Y-88312313D01*
X103773979Y-88312313D01*
X103836057Y-88306664D01*
X103929694Y-88298143D01*
X103929696Y-88298143D01*
X103992017Y-88304693D01*
X103992017Y-88304693D01*
G37*
G36*
X106532017Y-88304693D02*
X106625204Y-88314487D01*
X106774577Y-88360726D01*
X106912125Y-88435098D01*
X107032608Y-88534770D01*
X107131436Y-88655946D01*
X107204846Y-88794009D01*
X107250041Y-88943702D01*
X107265300Y-89099323D01*
X107265300Y-89107077D01*
X107265222Y-89118263D01*
X107247792Y-89273656D01*
X107200511Y-89422703D01*
X107125181Y-89559729D01*
X107024670Y-89679513D01*
X106902808Y-89777493D01*
X106764235Y-89849937D01*
X106614230Y-89894086D01*
X106614222Y-89894087D01*
X106614221Y-89894087D01*
X106552143Y-89899736D01*
X106458507Y-89908257D01*
X106458504Y-89908257D01*
X106396183Y-89901707D01*
X106302996Y-89891913D01*
X106153623Y-89845674D01*
X106016075Y-89771302D01*
X105895592Y-89671630D01*
X105796764Y-89550454D01*
X105723354Y-89412391D01*
X105678159Y-89262698D01*
X105662900Y-89107077D01*
X105662900Y-89099323D01*
X105662978Y-89088137D01*
X105680408Y-88932744D01*
X105727689Y-88783697D01*
X105803019Y-88646671D01*
X105903530Y-88526887D01*
X106025392Y-88428907D01*
X106163965Y-88356463D01*
X106313970Y-88312314D01*
X106313978Y-88312313D01*
X106313979Y-88312313D01*
X106376057Y-88306664D01*
X106469694Y-88298143D01*
X106469696Y-88298143D01*
X106532017Y-88304693D01*
X106532017Y-88304693D01*
G37*
G36*
X109805300Y-89904400D02*
X108202900Y-89904400D01*
X108202900Y-88302000D01*
X109805300Y-88302000D01*
X109805300Y-89904400D01*
X109805300Y-89904400D01*
G37*
G36*
X102468715Y-85979677D02*
X102663893Y-86019741D01*
X102663896Y-86019742D01*
X102663895Y-86019742D01*
X102847572Y-86096953D01*
X103012756Y-86208370D01*
X103083450Y-86279560D01*
X103153153Y-86349751D01*
X103263415Y-86515709D01*
X103339343Y-86699923D01*
X103378044Y-86895376D01*
X103374866Y-87122955D01*
X103330723Y-87317251D01*
X103280790Y-87429400D01*
X103249682Y-87499272D01*
X103249681Y-87499273D01*
X103134828Y-87662088D01*
X102990539Y-87799493D01*
X102822308Y-87906255D01*
X102636545Y-87978308D01*
X102636542Y-87978308D01*
X102636541Y-87978309D01*
X102513777Y-87999955D01*
X102440324Y-88012907D01*
X102440323Y-88012907D01*
X102241122Y-88008735D01*
X102167572Y-87992564D01*
X102046520Y-87965949D01*
X101863936Y-87886180D01*
X101700324Y-87772467D01*
X101561915Y-87629140D01*
X101561914Y-87629139D01*
X101453980Y-87461658D01*
X101380632Y-87276402D01*
X101344664Y-87080431D01*
X101344664Y-87080428D01*
X101347446Y-86881200D01*
X101385977Y-86699925D01*
X101388871Y-86686308D01*
X101467364Y-86503170D01*
X101579931Y-86338769D01*
X101722291Y-86199360D01*
X101889014Y-86090261D01*
X102073753Y-86015621D01*
X102269472Y-85978286D01*
X102468715Y-85979677D01*
X102468715Y-85979677D01*
G37*
G36*
X110596715Y-85979677D02*
X110791893Y-86019741D01*
X110791896Y-86019742D01*
X110791895Y-86019742D01*
X110975572Y-86096953D01*
X111140756Y-86208370D01*
X111211450Y-86279560D01*
X111281153Y-86349751D01*
X111391415Y-86515709D01*
X111467343Y-86699923D01*
X111506044Y-86895376D01*
X111502866Y-87122955D01*
X111458723Y-87317251D01*
X111408790Y-87429400D01*
X111377682Y-87499272D01*
X111377681Y-87499273D01*
X111262828Y-87662088D01*
X111118539Y-87799493D01*
X110950308Y-87906255D01*
X110764545Y-87978308D01*
X110764542Y-87978308D01*
X110764541Y-87978309D01*
X110641777Y-87999955D01*
X110568324Y-88012907D01*
X110568323Y-88012907D01*
X110369122Y-88008735D01*
X110295572Y-87992564D01*
X110174520Y-87965949D01*
X109991936Y-87886180D01*
X109828324Y-87772467D01*
X109689915Y-87629140D01*
X109689914Y-87629139D01*
X109581980Y-87461658D01*
X109508632Y-87276402D01*
X109472664Y-87080431D01*
X109472664Y-87080428D01*
X109475446Y-86881200D01*
X109513977Y-86699925D01*
X109516871Y-86686308D01*
X109595364Y-86503170D01*
X109707931Y-86338769D01*
X109850291Y-86199360D01*
X110017014Y-86090261D01*
X110201753Y-86015621D01*
X110397472Y-85978286D01*
X110596715Y-85979677D01*
X110596715Y-85979677D01*
G37*
M02*
