G04 #@! TF.FileFunction,Legend,Top*
%FSLAX46Y46*%
G04 Gerber Fmt 4.6, Leading zero omitted, Abs format (unit mm)*
G04 Created by KiCad (PCBNEW 4.0.2-stable) date Thursday, May 10, 2018 'AMt' 09:26:35 AM*
%MOMM*%
G01*
G04 APERTURE LIST*
%ADD10C,0.025400*%
%ADD11C,0.076200*%
%ADD12C,0.228600*%
%ADD13C,0.150000*%
%ADD14C,0.120000*%
G04 APERTURE END LIST*
D10*
D11*
X109851371Y-90082914D02*
X110460971Y-89879714D01*
X109851371Y-89676514D01*
X110460971Y-89386228D02*
X110431943Y-89444286D01*
X110402914Y-89473314D01*
X110344857Y-89502343D01*
X110170686Y-89502343D01*
X110112629Y-89473314D01*
X110083600Y-89444286D01*
X110054571Y-89386228D01*
X110054571Y-89299143D01*
X110083600Y-89241086D01*
X110112629Y-89212057D01*
X110170686Y-89183028D01*
X110344857Y-89183028D01*
X110402914Y-89212057D01*
X110431943Y-89241086D01*
X110460971Y-89299143D01*
X110460971Y-89386228D01*
X110054571Y-88660514D02*
X110460971Y-88660514D01*
X110054571Y-88921771D02*
X110373886Y-88921771D01*
X110431943Y-88892743D01*
X110460971Y-88834685D01*
X110460971Y-88747600D01*
X110431943Y-88689543D01*
X110402914Y-88660514D01*
X110054571Y-88457314D02*
X110054571Y-88225085D01*
X109851371Y-88370228D02*
X110373886Y-88370228D01*
X110431943Y-88341200D01*
X110460971Y-88283142D01*
X110460971Y-88225085D01*
X106127853Y-89966800D02*
X106079472Y-89942610D01*
X106006900Y-89942610D01*
X105934329Y-89966800D01*
X105885948Y-90015181D01*
X105861757Y-90063562D01*
X105837567Y-90160324D01*
X105837567Y-90232895D01*
X105861757Y-90329657D01*
X105885948Y-90378038D01*
X105934329Y-90426419D01*
X106006900Y-90450610D01*
X106055281Y-90450610D01*
X106127853Y-90426419D01*
X106152043Y-90402229D01*
X106152043Y-90232895D01*
X106055281Y-90232895D01*
X106369757Y-90450610D02*
X106369757Y-89942610D01*
X106660043Y-90450610D01*
X106660043Y-89942610D01*
X106901947Y-90450610D02*
X106901947Y-89942610D01*
X107022900Y-89942610D01*
X107095471Y-89966800D01*
X107143852Y-90015181D01*
X107168043Y-90063562D01*
X107192233Y-90160324D01*
X107192233Y-90232895D01*
X107168043Y-90329657D01*
X107143852Y-90378038D01*
X107095471Y-90426419D01*
X107022900Y-90450610D01*
X106901947Y-90450610D01*
X102229557Y-90288534D02*
X102229557Y-89804724D01*
X102471462Y-90046629D02*
X101987652Y-90046629D01*
X101836462Y-89593058D02*
X102471462Y-89381391D01*
X101836462Y-89169724D01*
X102441224Y-88685915D02*
X102471462Y-88746391D01*
X102471462Y-88867343D01*
X102441224Y-88927819D01*
X102410986Y-88958058D01*
X102350510Y-88988296D01*
X102169081Y-88988296D01*
X102108605Y-88958058D01*
X102078367Y-88927819D01*
X102048129Y-88867343D01*
X102048129Y-88746391D01*
X102078367Y-88685915D01*
X102441224Y-88141629D02*
X102471462Y-88202105D01*
X102471462Y-88323057D01*
X102441224Y-88383533D01*
X102410986Y-88413772D01*
X102350510Y-88444010D01*
X102169081Y-88444010D01*
X102108605Y-88413772D01*
X102078367Y-88383533D01*
X102048129Y-88323057D01*
X102048129Y-88202105D01*
X102078367Y-88141629D01*
D12*
X109539790Y-90434410D02*
G75*
G03X109539790Y-90434410I-141990J0D01*
G01*
X102630990Y-97218500D02*
G75*
G03X102630990Y-97218500I-141990J0D01*
G01*
D11*
X102890562Y-97407790D02*
X102704295Y-97141695D01*
X102571248Y-97407790D02*
X102571248Y-96848990D01*
X102784124Y-96848990D01*
X102837343Y-96875600D01*
X102863952Y-96902210D01*
X102890562Y-96955429D01*
X102890562Y-97035257D01*
X102863952Y-97088476D01*
X102837343Y-97115086D01*
X102784124Y-97141695D01*
X102571248Y-97141695D01*
X103130048Y-97115086D02*
X103316314Y-97115086D01*
X103396143Y-97407790D02*
X103130048Y-97407790D01*
X103130048Y-96848990D01*
X103396143Y-96848990D01*
X103635629Y-97407790D02*
X103635629Y-96848990D01*
X103768676Y-96848990D01*
X103848505Y-96875600D01*
X103901724Y-96928819D01*
X103928333Y-96982038D01*
X103954943Y-97088476D01*
X103954943Y-97168305D01*
X103928333Y-97274743D01*
X103901724Y-97327962D01*
X103848505Y-97381181D01*
X103768676Y-97407790D01*
X103635629Y-97407790D01*
X104806447Y-97115086D02*
X104886276Y-97141695D01*
X104912885Y-97168305D01*
X104939495Y-97221524D01*
X104939495Y-97301352D01*
X104912885Y-97354571D01*
X104886276Y-97381181D01*
X104833057Y-97407790D01*
X104620181Y-97407790D01*
X104620181Y-96848990D01*
X104806447Y-96848990D01*
X104859666Y-96875600D01*
X104886276Y-96902210D01*
X104912885Y-96955429D01*
X104912885Y-97008648D01*
X104886276Y-97061867D01*
X104859666Y-97088476D01*
X104806447Y-97115086D01*
X104620181Y-97115086D01*
X105445076Y-97407790D02*
X105178981Y-97407790D01*
X105178981Y-96848990D01*
X105631343Y-97407790D02*
X105631343Y-96848990D01*
X105950657Y-97407790D02*
X105711171Y-97088476D01*
X105950657Y-96848990D02*
X105631343Y-97168305D01*
X106562676Y-96848990D02*
X106695723Y-97407790D01*
X106802161Y-97008648D01*
X106908599Y-97407790D01*
X107041647Y-96848990D01*
X107254524Y-97407790D02*
X107254524Y-96848990D01*
X107254524Y-97115086D02*
X107573838Y-97115086D01*
X107573838Y-97407790D02*
X107573838Y-96848990D01*
X107760105Y-96848990D02*
X108079419Y-96848990D01*
X107919762Y-97407790D02*
X107919762Y-96848990D01*
X108984142Y-96875600D02*
X108930923Y-96848990D01*
X108851095Y-96848990D01*
X108771266Y-96875600D01*
X108718047Y-96928819D01*
X108691438Y-96982038D01*
X108664828Y-97088476D01*
X108664828Y-97168305D01*
X108691438Y-97274743D01*
X108718047Y-97327962D01*
X108771266Y-97381181D01*
X108851095Y-97407790D01*
X108904314Y-97407790D01*
X108984142Y-97381181D01*
X109010752Y-97354571D01*
X109010752Y-97168305D01*
X108904314Y-97168305D01*
X109569552Y-97407790D02*
X109383285Y-97141695D01*
X109250238Y-97407790D02*
X109250238Y-96848990D01*
X109463114Y-96848990D01*
X109516333Y-96875600D01*
X109542942Y-96902210D01*
X109569552Y-96955429D01*
X109569552Y-97035257D01*
X109542942Y-97088476D01*
X109516333Y-97115086D01*
X109463114Y-97141695D01*
X109250238Y-97141695D01*
X109809038Y-97407790D02*
X109809038Y-96848990D01*
X110128352Y-97407790D01*
X110128352Y-96848990D01*
D13*
X108615500Y-92325000D02*
X108615500Y-91825000D01*
X107665500Y-91825000D02*
X107665500Y-92325000D01*
X102204500Y-91825000D02*
X102204500Y-92325000D01*
X103154500Y-92325000D02*
X103154500Y-91825000D01*
X107734100Y-87833200D02*
X102654100Y-87833200D01*
X102654100Y-87833200D02*
X102654100Y-90373200D01*
X102654100Y-90373200D02*
X107734100Y-90373200D01*
X110554100Y-90653200D02*
X109004100Y-90653200D01*
X107734100Y-90373200D02*
X107734100Y-87833200D01*
X109004100Y-87553200D02*
X110554100Y-87553200D01*
X110554100Y-87553200D02*
X110554100Y-90653200D01*
X105506500Y-91825000D02*
X105506500Y-92325000D01*
X106456500Y-92325000D02*
X106456500Y-91825000D01*
X107548700Y-92325000D02*
X107548700Y-91825000D01*
X106598700Y-91825000D02*
X106598700Y-92325000D01*
X103347500Y-91825000D02*
X103347500Y-92325000D01*
X104297500Y-92325000D02*
X104297500Y-91825000D01*
X105313500Y-92325000D02*
X105313500Y-91825000D01*
X104363500Y-91825000D02*
X104363500Y-92325000D01*
X107948600Y-96886900D02*
X107948600Y-96711900D01*
X104598600Y-96886900D02*
X104598600Y-96636900D01*
X104598600Y-93536900D02*
X104598600Y-93786900D01*
X107948600Y-93536900D02*
X107948600Y-93786900D01*
X107948600Y-96886900D02*
X104598600Y-96886900D01*
X107948600Y-93536900D02*
X104598600Y-93536900D01*
X107948600Y-96711900D02*
X109198600Y-96711900D01*
D14*
X104378000Y-99485000D02*
X110438000Y-99485000D01*
X110438000Y-99485000D02*
X110438000Y-97365000D01*
X110438000Y-97365000D02*
X104378000Y-97365000D01*
X104378000Y-97365000D02*
X104378000Y-99485000D01*
X103378000Y-99485000D02*
X102318000Y-99485000D01*
X102318000Y-99485000D02*
X102318000Y-98425000D01*
X110933600Y-90930600D02*
X109233600Y-90930600D01*
X109233600Y-90930600D02*
X109233600Y-93480600D01*
X110933600Y-90930600D02*
X110933600Y-93480600D01*
M02*
