G04 #@! TF.FileFunction,Soldermask,Bot*
%FSLAX46Y46*%
G04 Gerber Fmt 4.6, Leading zero omitted, Abs format (unit mm)*
G04 Created by KiCad (PCBNEW 4.0.2-stable) date Thursday, May 10, 2018 'AMt' 09:26:35 AM*
%MOMM*%
G01*
G04 APERTURE LIST*
%ADD10C,0.025400*%
G04 APERTURE END LIST*
D10*
G36*
X105427768Y-97674863D02*
X105529034Y-97685505D01*
X105529040Y-97685507D01*
X105529050Y-97685508D01*
X105669102Y-97728861D01*
X105798066Y-97798592D01*
X105911030Y-97892044D01*
X106003690Y-98005657D01*
X106072519Y-98135105D01*
X106114894Y-98275456D01*
X106129200Y-98421365D01*
X106129200Y-98428635D01*
X106129127Y-98439123D01*
X106112784Y-98584818D01*
X106068454Y-98724564D01*
X105997825Y-98853038D01*
X105903587Y-98965347D01*
X105789329Y-99057212D01*
X105659404Y-99125136D01*
X105518761Y-99166529D01*
X105518753Y-99166530D01*
X105518752Y-99166530D01*
X105501656Y-99168086D01*
X105372756Y-99179817D01*
X105328232Y-99175137D01*
X105226966Y-99164495D01*
X105226960Y-99164493D01*
X105226950Y-99164492D01*
X105086898Y-99121139D01*
X104957934Y-99051408D01*
X104844970Y-98957956D01*
X104752310Y-98844343D01*
X104683481Y-98714895D01*
X104641106Y-98574544D01*
X104626800Y-98428635D01*
X104626800Y-98421365D01*
X104626873Y-98410877D01*
X104643216Y-98265182D01*
X104687546Y-98125436D01*
X104758175Y-97996962D01*
X104852413Y-97884653D01*
X104966671Y-97792788D01*
X105096596Y-97724864D01*
X105237239Y-97683471D01*
X105237247Y-97683470D01*
X105237248Y-97683470D01*
X105254344Y-97681914D01*
X105383244Y-97670183D01*
X105427768Y-97674863D01*
X105427768Y-97674863D01*
G37*
G36*
X107427768Y-97674863D02*
X107529034Y-97685505D01*
X107529040Y-97685507D01*
X107529050Y-97685508D01*
X107669102Y-97728861D01*
X107798066Y-97798592D01*
X107911030Y-97892044D01*
X108003690Y-98005657D01*
X108072519Y-98135105D01*
X108114894Y-98275456D01*
X108129200Y-98421365D01*
X108129200Y-98428635D01*
X108129127Y-98439123D01*
X108112784Y-98584818D01*
X108068454Y-98724564D01*
X107997825Y-98853038D01*
X107903587Y-98965347D01*
X107789329Y-99057212D01*
X107659404Y-99125136D01*
X107518761Y-99166529D01*
X107518753Y-99166530D01*
X107518752Y-99166530D01*
X107501656Y-99168086D01*
X107372756Y-99179817D01*
X107328232Y-99175137D01*
X107226966Y-99164495D01*
X107226960Y-99164493D01*
X107226950Y-99164492D01*
X107086898Y-99121139D01*
X106957934Y-99051408D01*
X106844970Y-98957956D01*
X106752310Y-98844343D01*
X106683481Y-98714895D01*
X106641106Y-98574544D01*
X106626800Y-98428635D01*
X106626800Y-98421365D01*
X106626873Y-98410877D01*
X106643216Y-98265182D01*
X106687546Y-98125436D01*
X106758175Y-97996962D01*
X106852413Y-97884653D01*
X106966671Y-97792788D01*
X107096596Y-97724864D01*
X107237239Y-97683471D01*
X107237247Y-97683470D01*
X107237248Y-97683470D01*
X107254344Y-97681914D01*
X107383244Y-97670183D01*
X107427768Y-97674863D01*
X107427768Y-97674863D01*
G37*
G36*
X109427768Y-97674863D02*
X109529034Y-97685505D01*
X109529040Y-97685507D01*
X109529050Y-97685508D01*
X109669102Y-97728861D01*
X109798066Y-97798592D01*
X109911030Y-97892044D01*
X110003690Y-98005657D01*
X110072519Y-98135105D01*
X110114894Y-98275456D01*
X110129200Y-98421365D01*
X110129200Y-98428635D01*
X110129127Y-98439123D01*
X110112784Y-98584818D01*
X110068454Y-98724564D01*
X109997825Y-98853038D01*
X109903587Y-98965347D01*
X109789329Y-99057212D01*
X109659404Y-99125136D01*
X109518761Y-99166529D01*
X109518753Y-99166530D01*
X109518752Y-99166530D01*
X109501656Y-99168086D01*
X109372756Y-99179817D01*
X109328232Y-99175137D01*
X109226966Y-99164495D01*
X109226960Y-99164493D01*
X109226950Y-99164492D01*
X109086898Y-99121139D01*
X108957934Y-99051408D01*
X108844970Y-98957956D01*
X108752310Y-98844343D01*
X108683481Y-98714895D01*
X108641106Y-98574544D01*
X108626800Y-98428635D01*
X108626800Y-98421365D01*
X108626873Y-98410877D01*
X108643216Y-98265182D01*
X108687546Y-98125436D01*
X108758175Y-97996962D01*
X108852413Y-97884653D01*
X108966671Y-97792788D01*
X109096596Y-97724864D01*
X109237239Y-97683471D01*
X109237247Y-97683470D01*
X109237248Y-97683470D01*
X109254344Y-97681914D01*
X109383244Y-97670183D01*
X109427768Y-97674863D01*
X109427768Y-97674863D01*
G37*
G36*
X104129200Y-99176200D02*
X102626800Y-99176200D01*
X102626800Y-97673800D01*
X104129200Y-97673800D01*
X104129200Y-99176200D01*
X104129200Y-99176200D01*
G37*
G36*
X103992017Y-88304693D02*
X104085204Y-88314487D01*
X104234577Y-88360726D01*
X104372125Y-88435098D01*
X104492608Y-88534770D01*
X104591436Y-88655946D01*
X104664846Y-88794009D01*
X104710041Y-88943702D01*
X104725300Y-89099323D01*
X104725300Y-89107077D01*
X104725222Y-89118263D01*
X104707792Y-89273656D01*
X104660511Y-89422703D01*
X104585181Y-89559729D01*
X104484670Y-89679513D01*
X104362808Y-89777493D01*
X104224235Y-89849937D01*
X104074230Y-89894086D01*
X104074222Y-89894087D01*
X104074221Y-89894087D01*
X104012143Y-89899736D01*
X103918507Y-89908257D01*
X103918504Y-89908257D01*
X103856183Y-89901707D01*
X103762996Y-89891913D01*
X103613623Y-89845674D01*
X103476075Y-89771302D01*
X103355592Y-89671630D01*
X103256764Y-89550454D01*
X103183354Y-89412391D01*
X103138159Y-89262698D01*
X103122900Y-89107077D01*
X103122900Y-89099323D01*
X103122978Y-89088137D01*
X103140408Y-88932744D01*
X103187689Y-88783697D01*
X103263019Y-88646671D01*
X103363530Y-88526887D01*
X103485392Y-88428907D01*
X103623965Y-88356463D01*
X103773970Y-88312314D01*
X103773978Y-88312313D01*
X103773979Y-88312313D01*
X103836057Y-88306664D01*
X103929694Y-88298143D01*
X103929696Y-88298143D01*
X103992017Y-88304693D01*
X103992017Y-88304693D01*
G37*
G36*
X106532017Y-88304693D02*
X106625204Y-88314487D01*
X106774577Y-88360726D01*
X106912125Y-88435098D01*
X107032608Y-88534770D01*
X107131436Y-88655946D01*
X107204846Y-88794009D01*
X107250041Y-88943702D01*
X107265300Y-89099323D01*
X107265300Y-89107077D01*
X107265222Y-89118263D01*
X107247792Y-89273656D01*
X107200511Y-89422703D01*
X107125181Y-89559729D01*
X107024670Y-89679513D01*
X106902808Y-89777493D01*
X106764235Y-89849937D01*
X106614230Y-89894086D01*
X106614222Y-89894087D01*
X106614221Y-89894087D01*
X106552143Y-89899736D01*
X106458507Y-89908257D01*
X106458504Y-89908257D01*
X106396183Y-89901707D01*
X106302996Y-89891913D01*
X106153623Y-89845674D01*
X106016075Y-89771302D01*
X105895592Y-89671630D01*
X105796764Y-89550454D01*
X105723354Y-89412391D01*
X105678159Y-89262698D01*
X105662900Y-89107077D01*
X105662900Y-89099323D01*
X105662978Y-89088137D01*
X105680408Y-88932744D01*
X105727689Y-88783697D01*
X105803019Y-88646671D01*
X105903530Y-88526887D01*
X106025392Y-88428907D01*
X106163965Y-88356463D01*
X106313970Y-88312314D01*
X106313978Y-88312313D01*
X106313979Y-88312313D01*
X106376057Y-88306664D01*
X106469694Y-88298143D01*
X106469696Y-88298143D01*
X106532017Y-88304693D01*
X106532017Y-88304693D01*
G37*
G36*
X109805300Y-89904400D02*
X108202900Y-89904400D01*
X108202900Y-88302000D01*
X109805300Y-88302000D01*
X109805300Y-89904400D01*
X109805300Y-89904400D01*
G37*
M02*
