G04 #@! TF.FileFunction,Legend,Bot*
%FSLAX46Y46*%
G04 Gerber Fmt 4.6, Leading zero omitted, Abs format (unit mm)*
G04 Created by KiCad (PCBNEW 4.0.2-stable) date Thursday, May 10, 2018 'AMt' 09:26:35 AM*
%MOMM*%
G01*
G04 APERTURE LIST*
%ADD10C,0.025400*%
%ADD11C,0.076200*%
G04 APERTURE END LIST*
D10*
D11*
X109784243Y-90818910D02*
X110026148Y-90818910D01*
X110026148Y-90310910D01*
X109542338Y-90818910D02*
X109590719Y-90794719D01*
X109614910Y-90770529D01*
X109639100Y-90722148D01*
X109639100Y-90577005D01*
X109614910Y-90528624D01*
X109590719Y-90504433D01*
X109542338Y-90480243D01*
X109469767Y-90480243D01*
X109421386Y-90504433D01*
X109397195Y-90528624D01*
X109373005Y-90577005D01*
X109373005Y-90722148D01*
X109397195Y-90770529D01*
X109421386Y-90794719D01*
X109469767Y-90818910D01*
X109542338Y-90818910D01*
X108937576Y-90818910D02*
X108937576Y-90552814D01*
X108961767Y-90504433D01*
X109010148Y-90480243D01*
X109106910Y-90480243D01*
X109155291Y-90504433D01*
X108937576Y-90794719D02*
X108985957Y-90818910D01*
X109106910Y-90818910D01*
X109155291Y-90794719D01*
X109179481Y-90746338D01*
X109179481Y-90697957D01*
X109155291Y-90649576D01*
X109106910Y-90625386D01*
X108985957Y-90625386D01*
X108937576Y-90601195D01*
X108477957Y-90818910D02*
X108477957Y-90310910D01*
X108477957Y-90794719D02*
X108526338Y-90818910D01*
X108623100Y-90818910D01*
X108671481Y-90794719D01*
X108695672Y-90770529D01*
X108719862Y-90722148D01*
X108719862Y-90577005D01*
X108695672Y-90528624D01*
X108671481Y-90504433D01*
X108623100Y-90480243D01*
X108526338Y-90480243D01*
X108477957Y-90504433D01*
X107558719Y-90770529D02*
X107582909Y-90794719D01*
X107655481Y-90818910D01*
X107703862Y-90818910D01*
X107776433Y-90794719D01*
X107824814Y-90746338D01*
X107849005Y-90697957D01*
X107873195Y-90601195D01*
X107873195Y-90528624D01*
X107849005Y-90431862D01*
X107824814Y-90383481D01*
X107776433Y-90335100D01*
X107703862Y-90310910D01*
X107655481Y-90310910D01*
X107582909Y-90335100D01*
X107558719Y-90359290D01*
X107147481Y-90794719D02*
X107195862Y-90818910D01*
X107292624Y-90818910D01*
X107341005Y-90794719D01*
X107365195Y-90746338D01*
X107365195Y-90552814D01*
X107341005Y-90504433D01*
X107292624Y-90480243D01*
X107195862Y-90480243D01*
X107147481Y-90504433D01*
X107123290Y-90552814D01*
X107123290Y-90601195D01*
X107365195Y-90649576D01*
X106833004Y-90818910D02*
X106881385Y-90794719D01*
X106905576Y-90746338D01*
X106905576Y-90310910D01*
X106566909Y-90818910D02*
X106615290Y-90794719D01*
X106639481Y-90746338D01*
X106639481Y-90310910D01*
X106010528Y-90673767D02*
X105768623Y-90673767D01*
X106058909Y-90818910D02*
X105889576Y-90310910D01*
X105720242Y-90818910D01*
X105333194Y-90818910D02*
X105333194Y-90310910D01*
X105333194Y-90794719D02*
X105381575Y-90818910D01*
X105478337Y-90818910D01*
X105526718Y-90794719D01*
X105550909Y-90770529D01*
X105575099Y-90722148D01*
X105575099Y-90577005D01*
X105550909Y-90528624D01*
X105526718Y-90504433D01*
X105478337Y-90480243D01*
X105381575Y-90480243D01*
X105333194Y-90504433D01*
X104873575Y-90818910D02*
X104873575Y-90552814D01*
X104897766Y-90504433D01*
X104946147Y-90480243D01*
X105042909Y-90480243D01*
X105091290Y-90504433D01*
X104873575Y-90794719D02*
X104921956Y-90818910D01*
X105042909Y-90818910D01*
X105091290Y-90794719D01*
X105115480Y-90746338D01*
X105115480Y-90697957D01*
X105091290Y-90649576D01*
X105042909Y-90625386D01*
X104921956Y-90625386D01*
X104873575Y-90601195D01*
X104631671Y-90480243D02*
X104631671Y-90988243D01*
X104631671Y-90504433D02*
X104583290Y-90480243D01*
X104486528Y-90480243D01*
X104438147Y-90504433D01*
X104413956Y-90528624D01*
X104389766Y-90577005D01*
X104389766Y-90722148D01*
X104413956Y-90770529D01*
X104438147Y-90794719D01*
X104486528Y-90818910D01*
X104583290Y-90818910D01*
X104631671Y-90794719D01*
X104244623Y-90480243D02*
X104051099Y-90480243D01*
X104172052Y-90310910D02*
X104172052Y-90746338D01*
X104147861Y-90794719D01*
X104099480Y-90818910D01*
X104051099Y-90818910D01*
X103688242Y-90794719D02*
X103736623Y-90818910D01*
X103833385Y-90818910D01*
X103881766Y-90794719D01*
X103905956Y-90746338D01*
X103905956Y-90552814D01*
X103881766Y-90504433D01*
X103833385Y-90480243D01*
X103736623Y-90480243D01*
X103688242Y-90504433D01*
X103664051Y-90552814D01*
X103664051Y-90601195D01*
X103905956Y-90649576D01*
X103446337Y-90818910D02*
X103446337Y-90480243D01*
X103446337Y-90577005D02*
X103422146Y-90528624D01*
X103397956Y-90504433D01*
X103349575Y-90480243D01*
X103301194Y-90480243D01*
X110050338Y-91582119D02*
X109977767Y-91606310D01*
X109856814Y-91606310D01*
X109808433Y-91582119D01*
X109784243Y-91557929D01*
X109760052Y-91509548D01*
X109760052Y-91461167D01*
X109784243Y-91412786D01*
X109808433Y-91388595D01*
X109856814Y-91364405D01*
X109953576Y-91340214D01*
X110001957Y-91316024D01*
X110026148Y-91291833D01*
X110050338Y-91243452D01*
X110050338Y-91195071D01*
X110026148Y-91146690D01*
X110001957Y-91122500D01*
X109953576Y-91098310D01*
X109832624Y-91098310D01*
X109760052Y-91122500D01*
X109348814Y-91582119D02*
X109397195Y-91606310D01*
X109493957Y-91606310D01*
X109542338Y-91582119D01*
X109566528Y-91533738D01*
X109566528Y-91340214D01*
X109542338Y-91291833D01*
X109493957Y-91267643D01*
X109397195Y-91267643D01*
X109348814Y-91291833D01*
X109324623Y-91340214D01*
X109324623Y-91388595D01*
X109566528Y-91436976D01*
X109179480Y-91267643D02*
X108985956Y-91267643D01*
X109106909Y-91098310D02*
X109106909Y-91533738D01*
X109082718Y-91582119D01*
X109034337Y-91606310D01*
X108985956Y-91606310D01*
X108502146Y-91267643D02*
X108308622Y-91267643D01*
X108429575Y-91606310D02*
X108429575Y-91170881D01*
X108405384Y-91122500D01*
X108357003Y-91098310D01*
X108308622Y-91098310D01*
X108066717Y-91606310D02*
X108115098Y-91582119D01*
X108139289Y-91557929D01*
X108163479Y-91509548D01*
X108163479Y-91364405D01*
X108139289Y-91316024D01*
X108115098Y-91291833D01*
X108066717Y-91267643D01*
X107994146Y-91267643D01*
X107945765Y-91291833D01*
X107921574Y-91316024D01*
X107897384Y-91364405D01*
X107897384Y-91509548D01*
X107921574Y-91557929D01*
X107945765Y-91582119D01*
X107994146Y-91606310D01*
X108066717Y-91606310D01*
X107679670Y-91606310D02*
X107679670Y-91267643D01*
X107679670Y-91364405D02*
X107655479Y-91316024D01*
X107631289Y-91291833D01*
X107582908Y-91267643D01*
X107534527Y-91267643D01*
X106712050Y-91606310D02*
X107002336Y-91606310D01*
X106857193Y-91606310D02*
X106857193Y-91098310D01*
X106905574Y-91170881D01*
X106953955Y-91219262D01*
X107002336Y-91243452D01*
X106494336Y-91606310D02*
X106494336Y-91267643D01*
X106494336Y-91316024D02*
X106470145Y-91291833D01*
X106421764Y-91267643D01*
X106349193Y-91267643D01*
X106300812Y-91291833D01*
X106276621Y-91340214D01*
X106276621Y-91606310D01*
X106276621Y-91340214D02*
X106252431Y-91291833D01*
X106204050Y-91267643D01*
X106131478Y-91267643D01*
X106083098Y-91291833D01*
X106058907Y-91340214D01*
X106058907Y-91606310D01*
X105889574Y-91098310D02*
X105720241Y-91606310D01*
X105550907Y-91098310D01*
X105018716Y-91074119D02*
X105454145Y-91727262D01*
X104921955Y-91098310D02*
X104752622Y-91606310D01*
X104583288Y-91098310D01*
X103809192Y-91582119D02*
X103857573Y-91606310D01*
X103954335Y-91606310D01*
X104002716Y-91582119D01*
X104026907Y-91557929D01*
X104051097Y-91509548D01*
X104051097Y-91364405D01*
X104026907Y-91316024D01*
X104002716Y-91291833D01*
X103954335Y-91267643D01*
X103857573Y-91267643D01*
X103809192Y-91291833D01*
X103397954Y-91582119D02*
X103446335Y-91606310D01*
X103543097Y-91606310D01*
X103591478Y-91582119D01*
X103615668Y-91533738D01*
X103615668Y-91340214D01*
X103591478Y-91291833D01*
X103543097Y-91267643D01*
X103446335Y-91267643D01*
X103397954Y-91291833D01*
X103373763Y-91340214D01*
X103373763Y-91388595D01*
X103615668Y-91436976D01*
X103083477Y-91606310D02*
X103131858Y-91582119D01*
X103156049Y-91533738D01*
X103156049Y-91098310D01*
X102817382Y-91606310D02*
X102865763Y-91582119D01*
X102889954Y-91533738D01*
X102889954Y-91098310D01*
X102648049Y-91582119D02*
X102599668Y-91606310D01*
X102502906Y-91606310D01*
X102454525Y-91582119D01*
X102430335Y-91533738D01*
X102430335Y-91509548D01*
X102454525Y-91461167D01*
X102502906Y-91436976D01*
X102575478Y-91436976D01*
X102623859Y-91412786D01*
X102648049Y-91364405D01*
X102648049Y-91340214D01*
X102623859Y-91291833D01*
X102575478Y-91267643D01*
X102502906Y-91267643D01*
X102454525Y-91291833D01*
X109929386Y-91885710D02*
X109881005Y-91885710D01*
X109832624Y-91909900D01*
X109808433Y-91934090D01*
X109784243Y-91982471D01*
X109760052Y-92079233D01*
X109760052Y-92200186D01*
X109784243Y-92296948D01*
X109808433Y-92345329D01*
X109832624Y-92369519D01*
X109881005Y-92393710D01*
X109929386Y-92393710D01*
X109977767Y-92369519D01*
X110001957Y-92345329D01*
X110026148Y-92296948D01*
X110050338Y-92200186D01*
X110050338Y-92079233D01*
X110026148Y-91982471D01*
X110001957Y-91934090D01*
X109977767Y-91909900D01*
X109929386Y-91885710D01*
X109590719Y-92055043D02*
X109469766Y-92393710D01*
X109348814Y-92055043D01*
X108381194Y-92055043D02*
X108768242Y-92200186D01*
X108381194Y-92345329D01*
X107824813Y-91885710D02*
X107655480Y-92393710D01*
X107486146Y-91885710D01*
X107244241Y-92393710D02*
X107292622Y-92369519D01*
X107316813Y-92345329D01*
X107341003Y-92296948D01*
X107341003Y-92151805D01*
X107316813Y-92103424D01*
X107292622Y-92079233D01*
X107244241Y-92055043D01*
X107171670Y-92055043D01*
X107123289Y-92079233D01*
X107099098Y-92103424D01*
X107074908Y-92151805D01*
X107074908Y-92296948D01*
X107099098Y-92345329D01*
X107123289Y-92369519D01*
X107171670Y-92393710D01*
X107244241Y-92393710D01*
X106639479Y-92055043D02*
X106639479Y-92393710D01*
X106857194Y-92055043D02*
X106857194Y-92321138D01*
X106833003Y-92369519D01*
X106784622Y-92393710D01*
X106712051Y-92393710D01*
X106663670Y-92369519D01*
X106639479Y-92345329D01*
X106470146Y-92055043D02*
X106276622Y-92055043D01*
X106397575Y-91885710D02*
X106397575Y-92321138D01*
X106373384Y-92369519D01*
X106325003Y-92393710D01*
X106276622Y-92393710D01*
X105333193Y-92055043D02*
X105720241Y-92200186D01*
X105333193Y-92345329D01*
X104752622Y-91885710D02*
X104438145Y-91885710D01*
X104607479Y-92079233D01*
X104534907Y-92079233D01*
X104486526Y-92103424D01*
X104462336Y-92127614D01*
X104438145Y-92175995D01*
X104438145Y-92296948D01*
X104462336Y-92345329D01*
X104486526Y-92369519D01*
X104534907Y-92393710D01*
X104680050Y-92393710D01*
X104728431Y-92369519D01*
X104752622Y-92345329D01*
X104220431Y-92345329D02*
X104196240Y-92369519D01*
X104220431Y-92393710D01*
X104244621Y-92369519D01*
X104220431Y-92345329D01*
X104220431Y-92393710D01*
X104002716Y-91934090D02*
X103978526Y-91909900D01*
X103930145Y-91885710D01*
X103809192Y-91885710D01*
X103760811Y-91909900D01*
X103736621Y-91934090D01*
X103712430Y-91982471D01*
X103712430Y-92030852D01*
X103736621Y-92103424D01*
X104026907Y-92393710D01*
X103712430Y-92393710D01*
X103543097Y-92055043D02*
X103422144Y-92393710D01*
X103301192Y-92055043D01*
X109881005Y-94137843D02*
X110001957Y-94137843D01*
X110001957Y-93412129D01*
X109881005Y-93412129D01*
X109348814Y-94137843D02*
X109227861Y-94137843D01*
X109227861Y-93412129D01*
X109348814Y-93412129D01*
X108647289Y-93460510D02*
X108477956Y-93968510D01*
X108308622Y-93460510D01*
X107921574Y-93944319D02*
X107969955Y-93968510D01*
X108066717Y-93968510D01*
X108115098Y-93944319D01*
X108139289Y-93920129D01*
X108163479Y-93871748D01*
X108163479Y-93726605D01*
X108139289Y-93678224D01*
X108115098Y-93654033D01*
X108066717Y-93629843D01*
X107969955Y-93629843D01*
X107921574Y-93654033D01*
X107486145Y-93944319D02*
X107534526Y-93968510D01*
X107631288Y-93968510D01*
X107679669Y-93944319D01*
X107703860Y-93920129D01*
X107728050Y-93871748D01*
X107728050Y-93726605D01*
X107703860Y-93678224D01*
X107679669Y-93654033D01*
X107631288Y-93629843D01*
X107534526Y-93629843D01*
X107486145Y-93654033D01*
X106881383Y-93702414D02*
X106494335Y-93702414D01*
X106494335Y-93847557D02*
X106881383Y-93847557D01*
X105865383Y-93774986D02*
X105478335Y-93774986D01*
X105671859Y-93968510D02*
X105671859Y-93581462D01*
X104994526Y-93460510D02*
X105236431Y-93460510D01*
X105260621Y-93702414D01*
X105236431Y-93678224D01*
X105188050Y-93654033D01*
X105067097Y-93654033D01*
X105018716Y-93678224D01*
X104994526Y-93702414D01*
X104970335Y-93750795D01*
X104970335Y-93871748D01*
X104994526Y-93920129D01*
X105018716Y-93944319D01*
X105067097Y-93968510D01*
X105188050Y-93968510D01*
X105236431Y-93944319D01*
X105260621Y-93920129D01*
X104801002Y-93629843D02*
X104680049Y-93968510D01*
X104559097Y-93629843D01*
X109881005Y-94925243D02*
X110001957Y-94925243D01*
X110001957Y-94199529D01*
X109881005Y-94199529D01*
X109348814Y-94925243D02*
X109227861Y-94925243D01*
X109227861Y-94199529D01*
X109348814Y-94199529D01*
X108647289Y-94247910D02*
X108477956Y-94755910D01*
X108308622Y-94247910D01*
X107921574Y-94731719D02*
X107969955Y-94755910D01*
X108066717Y-94755910D01*
X108115098Y-94731719D01*
X108139289Y-94707529D01*
X108163479Y-94659148D01*
X108163479Y-94514005D01*
X108139289Y-94465624D01*
X108115098Y-94441433D01*
X108066717Y-94417243D01*
X107969955Y-94417243D01*
X107921574Y-94441433D01*
X107486145Y-94731719D02*
X107534526Y-94755910D01*
X107631288Y-94755910D01*
X107679669Y-94731719D01*
X107703860Y-94707529D01*
X107728050Y-94659148D01*
X107728050Y-94514005D01*
X107703860Y-94465624D01*
X107679669Y-94441433D01*
X107631288Y-94417243D01*
X107534526Y-94417243D01*
X107486145Y-94441433D01*
X106881383Y-94489814D02*
X106494335Y-94489814D01*
X106494335Y-94634957D02*
X106881383Y-94634957D01*
X105865383Y-94562386D02*
X105478335Y-94562386D01*
X105671859Y-94755910D02*
X105671859Y-94368862D01*
X105284812Y-94247910D02*
X104970335Y-94247910D01*
X105139669Y-94441433D01*
X105067097Y-94441433D01*
X105018716Y-94465624D01*
X104994526Y-94489814D01*
X104970335Y-94538195D01*
X104970335Y-94659148D01*
X104994526Y-94707529D01*
X105018716Y-94731719D01*
X105067097Y-94755910D01*
X105212240Y-94755910D01*
X105260621Y-94731719D01*
X105284812Y-94707529D01*
X104752621Y-94707529D02*
X104728430Y-94731719D01*
X104752621Y-94755910D01*
X104776811Y-94731719D01*
X104752621Y-94707529D01*
X104752621Y-94755910D01*
X104559097Y-94247910D02*
X104244620Y-94247910D01*
X104413954Y-94441433D01*
X104341382Y-94441433D01*
X104293001Y-94465624D01*
X104268811Y-94489814D01*
X104244620Y-94538195D01*
X104244620Y-94659148D01*
X104268811Y-94707529D01*
X104293001Y-94731719D01*
X104341382Y-94755910D01*
X104486525Y-94755910D01*
X104534906Y-94731719D01*
X104559097Y-94707529D01*
X104075287Y-94417243D02*
X103954334Y-94755910D01*
X103833382Y-94417243D01*
X109813877Y-87206062D02*
X109602210Y-87841062D01*
X109390543Y-87206062D01*
X109088162Y-87841062D02*
X109148638Y-87810824D01*
X109178877Y-87780586D01*
X109209115Y-87720110D01*
X109209115Y-87538681D01*
X109178877Y-87478205D01*
X109148638Y-87447967D01*
X109088162Y-87417729D01*
X108997448Y-87417729D01*
X108936972Y-87447967D01*
X108906734Y-87478205D01*
X108876496Y-87538681D01*
X108876496Y-87720110D01*
X108906734Y-87780586D01*
X108936972Y-87810824D01*
X108997448Y-87841062D01*
X109088162Y-87841062D01*
X108332210Y-87417729D02*
X108332210Y-87841062D01*
X108604353Y-87417729D02*
X108604353Y-87750348D01*
X108574114Y-87810824D01*
X108513638Y-87841062D01*
X108422924Y-87841062D01*
X108362448Y-87810824D01*
X108332210Y-87780586D01*
X108120543Y-87417729D02*
X107878638Y-87417729D01*
X108029829Y-87206062D02*
X108029829Y-87750348D01*
X107999590Y-87810824D01*
X107939114Y-87841062D01*
X107878638Y-87841062D01*
X106850542Y-87236300D02*
X106911019Y-87206062D01*
X107001733Y-87206062D01*
X107092447Y-87236300D01*
X107152923Y-87296776D01*
X107183162Y-87357252D01*
X107213400Y-87478205D01*
X107213400Y-87568919D01*
X107183162Y-87689871D01*
X107152923Y-87750348D01*
X107092447Y-87810824D01*
X107001733Y-87841062D01*
X106941257Y-87841062D01*
X106850542Y-87810824D01*
X106820304Y-87780586D01*
X106820304Y-87568919D01*
X106941257Y-87568919D01*
X106548162Y-87841062D02*
X106548162Y-87206062D01*
X106185304Y-87841062D01*
X106185304Y-87206062D01*
X105882924Y-87841062D02*
X105882924Y-87206062D01*
X105731733Y-87206062D01*
X105641019Y-87236300D01*
X105580543Y-87296776D01*
X105550304Y-87357252D01*
X105520066Y-87478205D01*
X105520066Y-87568919D01*
X105550304Y-87689871D01*
X105580543Y-87750348D01*
X105641019Y-87810824D01*
X105731733Y-87841062D01*
X105882924Y-87841062D01*
X104854828Y-87206062D02*
X104643161Y-87841062D01*
X104431494Y-87206062D01*
X103947685Y-87810824D02*
X104008161Y-87841062D01*
X104129113Y-87841062D01*
X104189589Y-87810824D01*
X104219828Y-87780586D01*
X104250066Y-87720110D01*
X104250066Y-87538681D01*
X104219828Y-87478205D01*
X104189589Y-87447967D01*
X104129113Y-87417729D01*
X104008161Y-87417729D01*
X103947685Y-87447967D01*
X103403399Y-87810824D02*
X103463875Y-87841062D01*
X103584827Y-87841062D01*
X103645303Y-87810824D01*
X103675542Y-87780586D01*
X103705780Y-87720110D01*
X103705780Y-87538681D01*
X103675542Y-87478205D01*
X103645303Y-87447967D01*
X103584827Y-87417729D01*
X103463875Y-87417729D01*
X103403399Y-87447967D01*
X109886448Y-99669600D02*
X109939667Y-99642990D01*
X110019495Y-99642990D01*
X110099324Y-99669600D01*
X110152543Y-99722819D01*
X110179152Y-99776038D01*
X110205762Y-99882476D01*
X110205762Y-99962305D01*
X110179152Y-100068743D01*
X110152543Y-100121962D01*
X110099324Y-100175181D01*
X110019495Y-100201790D01*
X109966276Y-100201790D01*
X109886448Y-100175181D01*
X109859838Y-100148571D01*
X109859838Y-99962305D01*
X109966276Y-99962305D01*
X109301038Y-100201790D02*
X109487305Y-99935695D01*
X109620352Y-100201790D02*
X109620352Y-99642990D01*
X109407476Y-99642990D01*
X109354257Y-99669600D01*
X109327648Y-99696210D01*
X109301038Y-99749429D01*
X109301038Y-99829257D01*
X109327648Y-99882476D01*
X109354257Y-99909086D01*
X109407476Y-99935695D01*
X109620352Y-99935695D01*
X109061552Y-100201790D02*
X109061552Y-99642990D01*
X108742238Y-100201790D01*
X108742238Y-99642990D01*
X108103609Y-99642990D02*
X107970562Y-100201790D01*
X107864124Y-99802648D01*
X107757686Y-100201790D01*
X107624638Y-99642990D01*
X107411761Y-100201790D02*
X107411761Y-99642990D01*
X107411761Y-99909086D02*
X107092447Y-99909086D01*
X107092447Y-100201790D02*
X107092447Y-99642990D01*
X106906180Y-99642990D02*
X106586866Y-99642990D01*
X106746523Y-100201790D02*
X106746523Y-99642990D01*
X105788581Y-99909086D02*
X105708752Y-99935695D01*
X105682143Y-99962305D01*
X105655533Y-100015524D01*
X105655533Y-100095352D01*
X105682143Y-100148571D01*
X105708752Y-100175181D01*
X105761971Y-100201790D01*
X105974847Y-100201790D01*
X105974847Y-99642990D01*
X105788581Y-99642990D01*
X105735362Y-99669600D01*
X105708752Y-99696210D01*
X105682143Y-99749429D01*
X105682143Y-99802648D01*
X105708752Y-99855867D01*
X105735362Y-99882476D01*
X105788581Y-99909086D01*
X105974847Y-99909086D01*
X105149952Y-100201790D02*
X105416047Y-100201790D01*
X105416047Y-99642990D01*
X104963685Y-100201790D02*
X104963685Y-99642990D01*
X104644371Y-100201790D02*
X104883857Y-99882476D01*
X104644371Y-99642990D02*
X104963685Y-99962305D01*
X103659819Y-100201790D02*
X103846086Y-99935695D01*
X103979133Y-100201790D02*
X103979133Y-99642990D01*
X103766257Y-99642990D01*
X103713038Y-99669600D01*
X103686429Y-99696210D01*
X103659819Y-99749429D01*
X103659819Y-99829257D01*
X103686429Y-99882476D01*
X103713038Y-99909086D01*
X103766257Y-99935695D01*
X103979133Y-99935695D01*
X103420333Y-99909086D02*
X103234067Y-99909086D01*
X103154238Y-100201790D02*
X103420333Y-100201790D01*
X103420333Y-99642990D01*
X103154238Y-99642990D01*
X102914752Y-100201790D02*
X102914752Y-99642990D01*
X102781705Y-99642990D01*
X102701876Y-99669600D01*
X102648657Y-99722819D01*
X102622048Y-99776038D01*
X102595438Y-99882476D01*
X102595438Y-99962305D01*
X102622048Y-100068743D01*
X102648657Y-100121962D01*
X102701876Y-100175181D01*
X102781705Y-100201790D01*
X102914752Y-100201790D01*
M02*
